<?xml version="1.0" standalone="no"?>
<!DOCTYPE svg PUBLIC "-//W3C//DTD SVG 20010904//EN"
 "http://www.w3.org/TR/2001/REC-SVG-20010904/DTD/svg10.dtd">
<svg version="1.0" xmlns="http://www.w3.org/2000/svg"
 width="1200.000000pt" height="628.000000pt" viewBox="0 0 1200.000000 628.000000"
 preserveAspectRatio="xMidYMid meet">
<metadata>
Created by potrace 1.15, written by Peter Selinger 2001-2017
</metadata>
<g transform="translate(0.000000,628.000000) scale(0.100000,-0.100000)"
fill="#000000" stroke="none">
<path d="M3919 5385 c-311 -50 -599 -182 -846 -388 -174 -145 -337 -350 -429
-539 -19 -40 -41 -84 -48 -98 -24 -45 -85 -237 -107 -337 -30 -138 -38 -494
-15 -633 23 -136 54 -252 92 -352 213 -559 700 -971 1287 -1090 98 -20 142
-23 347 -23 261 0 367 15 553 76 581 192 1037 706 1158 1306 31 154 38 466 14
619 -48 306 -150 548 -335 794 -243 323 -620 562 -1028 651 -127 28 -509 36
-643 14z m486 -86 c363 -45 720 -222 976 -486 266 -272 444 -670 467 -1040 42
-670 -318 -1296 -913 -1588 -152 -74 -272 -116 -422 -146 -616 -123 -1269 132
-1640 641 -147 201 -234 393 -287 632 -103 462 5 954 296 1342 239 319 600
546 998 626 93 19 306 38 255 24 -11 -4 -23 -11 -27 -18 -6 -8 -8 -7 -8 2 0 7
-13 12 -30 12 l-30 0 0 -94 0 -94 83 5 c113 7 127 18 127 93 0 50 -4 61 -22
74 -12 9 -33 16 -45 16 -13 0 -23 5 -23 11 0 11 94 6 245 -12z"/>
<path d="M4277 5273 c-3 -16 -9 -56 -12 -89 l-7 -61 28 -6 c17 -3 32 0 36 6 6
9 8 9 8 1 0 -6 39 -19 88 -28 93 -18 99 -20 122 -29 90 -38 141 -40 111 -4
-11 14 -98 44 -113 39 -4 -1 4 31 18 70 13 39 23 73 21 75 -2 1 -17 6 -34 9
l-31 6 -25 -77 c-13 -43 -26 -72 -28 -66 -5 14 -96 34 -116 26 -9 -3 -13 6
-13 26 0 25 3 28 18 20 9 -5 38 -12 65 -16 43 -7 47 -6 47 13 0 17 -8 22 -47
27 -64 9 -73 12 -73 28 0 12 11 12 66 2 56 -11 66 -11 71 2 9 22 -6 29 -92 41
-105 16 -102 16 -108 -15z"/>
<path d="M3806 5238 c-43 -9 -93 -36 -100 -54 -9 -23 7 -54 30 -60 13 -4 41
-3 62 2 60 12 88 3 57 -20 -11 -8 -31 -12 -45 -9 -70 12 -112 -6 -76 -33 54
-39 196 13 196 71 0 38 -23 48 -95 41 -41 -4 -65 -3 -65 4 0 13 45 24 66 16
25 -10 65 4 62 22 -4 21 -45 30 -92 20z"/>
<path d="M3543 5138 c-20 -10 -23 -19 -25 -106 l-3 -96 -44 67 c-24 37 -46 67
-50 67 -3 0 -17 -9 -30 -19 l-25 -19 28 -37 c15 -20 26 -38 24 -40 -2 -2 -28
2 -58 10 -69 18 -70 18 -97 -3 l-22 -17 39 -59 c22 -33 38 -60 37 -61 -1 -1
-23 -21 -49 -45 -40 -35 -51 -40 -63 -30 -12 10 -8 17 28 47 41 35 53 63 30
70 -6 2 -30 -13 -53 -33 -27 -25 -44 -34 -51 -27 -8 8 26 42 90 90 5 3 -20 33
-28 33 -3 0 -28 -21 -56 -46 -27 -26 -60 -54 -72 -64 l-22 -17 57 -69 c39 -48
48 -64 30 -51 -15 9 -34 17 -42 17 -10 0 -13 6 -10 15 9 23 -15 45 -48 45 -23
0 -44 -14 -91 -60 l-62 -60 60 -61 c37 -37 52 -59 40 -55 -11 3 -51 12 -90 20
-68 14 -71 14 -92 -6 -13 -12 -23 -27 -23 -35 0 -20 51 -146 66 -162 20 -22
57 14 49 46 -8 33 29 81 59 76 18 -4 32 7 64 44 l41 50 -22 21 -21 22 21 22
c19 19 25 20 52 8 l31 -12 -38 -47 c-147 -178 -242 -373 -298 -616 -27 -116
-27 -471 0 -600 57 -274 182 -503 385 -705 156 -156 324 -264 511 -330 80 -29
78 -27 52 -46 -16 -11 -22 -25 -22 -54 0 -55 55 -109 103 -101 4 0 7 -3 7 -9
0 -12 117 -13 124 -1 3 4 -3 16 -13 25 -16 14 -27 16 -63 9 -39 -8 -45 -6 -65
18 -28 33 -29 65 -4 79 33 17 61 11 92 -19 16 -16 43 -32 60 -36 l32 -7 -7
-59 c-5 -51 -3 -59 12 -61 9 0 28 -2 42 -4 146 -16 157 -16 165 -4 11 18 -10
27 -83 35 l-64 7 7 65 c5 50 4 68 -7 74 -7 5 54 9 144 9 l157 0 6 -55 c9 -70
3 -85 -34 -85 -28 0 -30 3 -36 47 -11 81 -12 83 -48 76 -18 -3 -33 -7 -35 -8
-9 -7 18 -128 33 -145 21 -23 95 -29 95 -7 0 9 2 9 9 -1 12 -19 57 -5 81 26
17 20 19 34 14 72 -6 46 -6 47 26 59 18 6 40 11 48 11 25 0 -6 -28 -39 -35
-21 -5 -29 -12 -27 -23 4 -18 24 -20 71 -7 44 12 34 -20 -12 -39 -31 -12 -38
-19 -34 -34 5 -19 7 -19 55 -4 88 29 127 89 73 114 -19 9 -22 14 -15 29 7 13
6 22 -6 33 -12 13 -13 17 -2 21 7 2 47 16 88 31 449 158 790 546 906 1029 26
108 31 425 9 557 -20 127 -69 276 -130 399 -35 72 -40 87 -20 64 23 -27 25
-28 25 -9 0 12 7 27 15 34 8 7 15 20 15 30 0 13 6 17 20 13 11 -3 27 0 35 7
29 24 17 63 -41 134 -50 60 -58 66 -72 54 -10 -8 -34 -29 -56 -47 -21 -18 -40
-31 -42 -29 -2 2 8 39 21 83 l25 79 -22 23 c-26 28 -36 28 -117 3 -35 -11 -66
-18 -69 -16 -2 3 15 28 38 55 42 50 43 51 25 71 -25 27 -34 25 -66 -12 l-26
-33 -8 65 c-8 71 -28 104 -57 94 -13 -4 -16 -1 -12 10 3 9 -4 21 -21 32 -24
16 -26 16 -39 -1 -12 -16 -13 -16 -19 12 -4 20 -19 38 -46 56 -22 15 -45 27
-51 27 -5 0 -10 4 -10 8 0 5 -11 14 -24 20 -23 10 -27 7 -72 -65 l-47 -76 24
-18 c18 -14 4 -11 -51 11 -189 72 -334 94 -584 87 -159 -4 -195 -8 -296 -34
-63 -17 -148 -44 -187 -61 l-73 -31 0 23 c0 30 62 61 88 45 14 -9 26 -8 51 6
18 9 29 20 25 24 -44 37 -154 111 -165 110 -8 0 -24 -5 -36 -11z m467 -229
c-74 -33 -163 -98 -198 -146 -149 -199 -143 -434 15 -591 100 -99 210 -132
327 -98 48 14 70 29 122 80 34 34 65 73 68 87 23 109 10 171 -49 229 -37 36
-51 44 -92 47 -43 4 -52 1 -80 -26 -18 -16 -33 -37 -33 -46 0 -19 38 -54 58
-55 20 0 33 -46 22 -75 -12 -30 -46 -45 -105 -45 -60 0 -89 15 -122 64 -20 30
-28 57 -31 101 -8 122 40 207 148 263 62 32 69 34 150 30 62 -3 98 -10 132
-26 120 -59 202 -181 219 -328 22 -194 -86 -386 -268 -476 -136 -68 -258 -72
-438 -13 -94 32 -240 43 -329 26 -95 -18 -191 -71 -281 -154 -45 -41 -94 -94
-110 -118 -17 -24 -33 -46 -36 -49 -3 -3 -21 -41 -40 -85 -33 -79 -34 -82 -34
-228 l0 -149 -24 54 c-13 29 -37 105 -53 168 -26 97 -31 139 -35 270 -5 169
11 283 63 440 119 359 393 647 751 790 103 41 241 78 298 79 28 1 27 -1 -15
-20z m481 -4 c185 -47 326 -114 474 -225 119 -90 223 -199 296 -310 263 -401
293 -860 82 -1288 -49 -99 -73 -130 -46 -60 20 52 30 313 12 334 -6 7 -11 26
-11 43 -1 17 -5 31 -9 31 -4 0 -17 19 -27 43 -43 94 -150 183 -264 218 -74 23
-132 22 -213 -4 -67 -21 -108 -47 -145 -92 -14 -16 -32 -37 -42 -46 -30 -31
-61 -144 -55 -202 7 -71 51 -161 96 -195 76 -59 152 -65 223 -16 60 42 74 109
34 159 l-24 30 -31 -22 c-36 -28 -63 -29 -83 -5 -25 28 -29 52 -16 94 35 116
193 141 295 45 17 -16 44 -56 58 -90 25 -54 27 -69 23 -142 -11 -174 -119
-289 -296 -317 -125 -19 -253 27 -349 125 -89 91 -133 207 -133 352 0 183 53
295 229 480 135 143 191 285 193 490 1 106 -2 130 -25 201 -56 167 -177 303
-332 371 -66 29 -33 29 86 -2z m-732 -1226 c128 -29 256 -135 315 -259 19 -41
38 -93 42 -115 3 -22 9 -44 13 -50 6 -10 6 -13 15 -55 18 -84 80 -215 129
-273 44 -51 130 -138 157 -157 63 -45 170 -90 242 -101 156 -24 347 22 435
106 59 56 65 44 8 -15 -128 -131 -328 -258 -510 -323 -483 -171 -1047 -15
-1385 385 -38 45 -44 54 -20 33 19 -16 37 -33 40 -37 12 -16 139 -66 195 -78
87 -18 166 -7 251 35 254 125 324 458 133 630 -54 48 -97 67 -164 73 -55 4
-69 1 -115 -24 -89 -49 -135 -135 -111 -213 20 -67 99 -115 129 -78 6 7 12 33
14 57 2 37 8 47 29 57 42 20 84 0 108 -51 37 -75 21 -150 -45 -220 -83 -88
-259 -75 -350 26 -87 97 -111 250 -63 396 39 117 142 212 269 246 64 17 177
20 239 5z"/>
</g>
</svg>
